<?xml version="1.0" encoding="iso-8859-1"?>
<!-- Generator: Adobe Illustrator 16.0.0, SVG Export Plug-In . SVG Version: 6.00 Build 0)  -->
<!DOCTYPE svg PUBLIC "-//W3C//DTD SVG 1.1//EN" "http://www.w3.org/Graphics/SVG/1.1/DTD/svg11.dtd">
<svg xmlns="http://www.w3.org/2000/svg" xmlns:xlink="http://www.w3.org/1999/xlink" version="1.1" id="Capa_1" x="0px" y="0px" width="512px" height="512px" viewBox="0 0 579.815 579.815" style="enable-background:new 0 0 579.815 579.815;" xml:space="preserve">
<g>
	<path d="M541.61,226.029c-1.894-11.812-16.508-6.222-25.68-6.222c-5.553,0-11.42-6.405-18.14-6.405   c-4.071,0-3.149,2.326-6.638-1.102c-12.044-11.759-28.968-14.398-42.073-2.925c-11.873,10.396-28.887,28.959-40.277,7.723   c-8.038-14.99-20.661-28.45-35.949-36.434c-14.035-7.324-31.408-8.254-46.108-14.721c-8.136-3.595-15.744-1.677-23.533-4.312   c-9.14-3.101-18.038-6.83-27.063-10.241c-19.723-7.491-40.021-12.619-61.033-14.851c-41.237-4.312-87.239-2.872-126.08,13.158   c-19.935,8.237-32.779,25.169-47.316,40.424c-7.324,7.699-14.655,15.378-21.983,23.085c-4.61,4.839-19.111,9.314-19.735,15.492   c-0.024,0.224,0.164,0.408,0.388,0.404c11.938-0.229,22.032-10.485,29.719-18.552c7.789-8.209,16.765-15.275,25.586-22.33   c8.792-7.062,17.205-15.761,27.936-19.804c12.799-4.834,27.397-4.659,40.877-3.859c27.793,1.665,54.521,10.771,79.193,23.337   c14.043,7.144,24.248,17.687,31.836,31.686c3.696,6.891,11.143,9.649,11.444,17.678c0.281,7.401,0.555,14.814,0.832,22.208   c0.233,6.32-1.338,11.559-1.338,17.67c0,10.902-9.992,17.237-12.979,28.69c-3.692,14.174-0.539,29.49-5.133,43.387   c-1.722,5.145-3.9,10.102-6.01,15.1c-3.187,7.491-1.281,10.571,0.967,18.14c2.069,6.969,3.578,14.113,4.496,21.322   c1.069,8.43,2.836,10.347,6.1,17.479c1.22,2.774,4.06,6.104,7.23,7.948c0.196,0.114,0.478,0.335,0.628,0.502   c2.876,3.19,10.29,11.844,8.731,14.691c-1.921,3.514,9.837-2.635,4.015-16.005c-0.139-0.318-0.281-0.584-0.42-0.85   c-0.106-0.199-0.008-0.342,0.216-0.317c1.726,0.199,3.835,0.755,6.03,1.448c0.216,0.069,0.514,0.261,0.669,0.424   c2.289,2.489,10.955,12.24,9.282,15.296c-1.755,3.211,7.886-1.66,5.12-12.726c-0.053-0.22,0.061-0.473,0.27-0.562   c1.407-0.62,2.884-1.094,4.398-1.457c0.22-0.053,0.563-0.021,0.767,0.073c4.692,2.135,11.179,5.549,11.037,8.111   c-0.204,3.717,6.65-5.193-1.232-14.142c-0.073-0.085-0.171-0.199-0.265-0.313c-0.143-0.176-0.583-0.759-1.032-1.265   c-7.817-8.801-29.38-15.26-33.468-25.48c-7.887-18.466-6.716-37.535,3.031-54.945c9.205-16.442,17.63-32.19,22.661-50.465   c0.061-0.216,0.179-0.559,0.298-0.751c3.472-5.708,17.769,8.809,23.873,10.588c0.216,0.061,0.351,0.281,0.273,0.493   c-2.693,7.373-23.934,18.658-14.795,27.475c5.619,5.443,12.412,6.839,17.5,13.191c0.167,0.203,0.318,0.412,0.473,0.615   c0.135,0.18,0.298,0.494,0.445,0.665c0.102,0.119,0.24,0.266,0.399,0.437c2.085,2.669,4.023,5.374,5.912,8.214   c0.62,0.877,1.134,1.387,1.579,1.636c0.195,0.11,0.469,0.306,0.583,0.502c1.15,2.003,1.771,3.786,1.216,4.814   c-1.746,3.235,7.977-1.746,5.019-12.909c-0.057-0.217,0.078-0.375,0.298-0.335c3.554,0.625,8.123,4.925,9.433,6.275   c6.333,6.499,11.221,13.814,17.038,20.551c0.441,0.51,0.923,1.057,1.053,1.24c0.086,0.118,0.164,0.241,0.221,0.343   c2.342,4.231,4.659,9.359,3.284,11.106c-2.023,2.565,5.981,0.285,7.096-8.319c0.028-0.225,0.204-0.311,0.399-0.196   c2.872,1.686,5.463,3.317,6.246-0.587c0.106-0.498,0.159-1.004,0.213-1.51c0.024-0.225,0.199-0.307,0.388-0.18   c2.109,1.407,3.631,2.86,3.562,4.108c-0.217,3.998,7.739-6.617-3.276-16.173c-0.901-0.783-1.722-1.347-2.493-1.804   c-0.195-0.114-0.416-0.371-0.493-0.579c-1.024-2.681-2.248-5.243-3.473-7.548c-4.74-8.915-9.339-14.138-18.323-18.911   c-4.377-2.31-23.998-8.687-23.998-15.145c0-6.888,9.784-4.215,13.374-0.616c0.478,0.478,0.877,1.089,1.045,1.22   c0.105,0.086,0.229,0.151,0.334,0.18c4.292,1.085,10.588-0.11,14.908-0.11c11.563,0,15.052,12.979,26.924,14.08   c0.674,0.062,1.384,0.094,1.465-0.032c0.045-0.065,0.045-0.159,0-0.262c-2.016-4.324-4.104-8.67-7.291-12.248   c-0.15-0.167-0.102-0.359,0.114-0.424c7.189-2.159,14.807,5.479,22.428,5.3c0.225-0.004,0.343-0.192,0.221-0.384   c-1.44-2.297-8.882-8.319-3.174-9.164c4.516-0.652,0.265-4.015-1.51-5.671c-0.163-0.155-0.204-0.449-0.041-0.604   c2.398-2.289,17.834-5.741,20.506-6.744c10.47-3.938,19.241,1.941,21.371,10.967c0.053,0.221,0.098,0.583,0.106,0.808   c0.102,2.848,0.073,7.969-1.429,8.584c-2.093,0.861,5.256,2.338,7.446-5.598c0.077-0.273,0.135-0.53,0.18-0.771   c0.045-0.221,0.249-0.449,0.474-0.478c0.105-0.013,0.208-0.024,0.31-0.028c0.172-0.009,0.481,0.021,0.669,0.126   c0.123,0.069,0.232,0.155,0.302,0.241c1.861,2.231,4.631,5.916,3.872,7.254c-1.113,1.971,5.577-1.412,2.396-9.005   c-0.229-0.551-0.47-0.999-0.714-1.387c-0.119-0.192-0.229-0.522-0.241-0.747c-0.44-10.143-7.973-16.731-16.442-21.966   c-0.191-0.119-0.216-0.339-0.053-0.49c8.711-8.196,26.997-19.302,39.404-15.585c12.819,3.835,15.284,18.649,22.607,27.98   c6.568,8.359,15.777,14.981,23.913,21.767c8.902,7.421,18.233,17.516,28.543,22.945c10.511,5.521,22.8-11.257,14.599-17.902   c-0.24-0.2-0.155-0.359,0.024-0.49c0.135-0.098,0.277-0.208,0.425-0.33c5.495-4.627,1.84-9.959,1.872-7.98   c0.028,1.555-4.736,3.64-6.806,4.472c-0.208,0.086-0.514,0.028-0.677-0.127c-0.44-0.416-0.877-0.836-1.306-1.265   c-0.159-0.159-0.139-0.388,0.041-0.518c0.171-0.123,0.347-0.258,0.53-0.412c5.496-4.627,1.84-9.96,1.873-7.98   c0.016,0.877-1.502,1.917-3.199,2.814c-0.6,0.314-0.738,0.123-0.396-0.461c2.374-4.011-0.127-7.511-0.094-5.843   c0.021,1.294-3.269,2.946-5.578,3.95c-0.207,0.09-0.485,0.012-0.615-0.172c-0.155-0.216-0.094-0.437,0.109-0.53   c5.794-2.717,4.269-8.359,3.673-6.557c-0.421,1.27-4.305,1.734-6.814,1.905c-0.224,0.017-0.497-0.13-0.611-0.326   c-0.18-0.306-0.355-0.612-0.53-0.922c-0.29-0.51-0.563-1.012-0.601-1.118c-0.036-0.11-0.044-0.188-0.008-0.195   c6.813-2.583,5.129-8.825,4.505-6.944c-0.278,0.832-2.053,1.313-3.95,1.599c-0.669,0.099-0.738-0.13-0.22-0.562   c3.565-2.999,2.366-7.128,1.84-5.549c-0.38,1.143-3.582,1.636-6.051,1.849c-0.225,0.02-0.465-0.144-0.534-0.355   c-1.922-5.793-2.995-11.876-3.04-18.139c0-0.114,0.037-0.188,0.094-0.216c0.123-0.057,0.661,0.4,1.114,0.902   c2.121,2.346-0.6,2.787,5.569,2.366c2.321-0.122,3.794,0.649,4.757,2.044c0.065,0.094,0.118,0.224,0.155,0.363   c0.057,0.212,0.045,0.938-0.008,1.612c-0.131,1.656-0.453,3.109-1.159,3.423c-1.542,0.689,2.86,1.55,5.353-2.501   c0.119-0.192,0.311-0.269,0.408-0.134c0.099,0.134,0.151,0.44,0.139,0.665c-0.109,1.819-0.412,3.5-1.175,3.838   c-1.746,0.779,4.101,1.746,6.193-4.394c0.037-0.106,0.11-0.208,0.208-0.29c0.151-0.126,0.779-0.188,1.347-0.143   c0.347,0.029,0.689,0.086,1.016,0.18c0.217,0.061,0.396,0.31,0.408,0.535c0.098,2.477,0.082,6.817-1.203,7.392   c-1.812,0.808,4.569,1.86,6.434-5.075c0.058-0.212,0.078-0.384,0.094-0.551c0.021-0.225,0.212-0.478,0.429-0.535   c3.333-0.877,6.932,3.794,6.055,8.335c-0.041,0.221,0.094,0.399,0.318,0.375c5.022-0.514,11.261-10.317,11.261-14.908   c0-6.977-0.114-13.599-3.149-20.082c-4.436-9.453-11.865-17.018-20.127-23.223C551.79,236,542.635,232.504,541.61,226.029z    M356.681,307.44c-0.062-0.077-0.094-0.18-0.069-0.289c1.917-8.911,28.429-4.134,28.429,1.068c0,4.072-17.058,1.465-19.122,0.894   c-2.542-0.697-5.125-1.175-7.748-1.432C357.496,307.616,356.791,307.571,356.681,307.44z" fill="#FFFFFF"/>
</g>
<g>
</g>
<g>
</g>
<g>
</g>
<g>
</g>
<g>
</g>
<g>
</g>
<g>
</g>
<g>
</g>
<g>
</g>
<g>
</g>
<g>
</g>
<g>
</g>
<g>
</g>
<g>
</g>
<g>
</g>
</svg>
