<?xml version="1.0" encoding="iso-8859-1"?>
<!-- Generator: Adobe Illustrator 17.1.0, SVG Export Plug-In . SVG Version: 6.00 Build 0)  -->
<!DOCTYPE svg PUBLIC "-//W3C//DTD SVG 1.1//EN" "http://www.w3.org/Graphics/SVG/1.1/DTD/svg11.dtd">
<svg xmlns="http://www.w3.org/2000/svg" xmlns:xlink="http://www.w3.org/1999/xlink" version="1.1" id="Capa_1" x="0px" y="0px" viewBox="0 0 496 496" style="enable-background:new 0 0 496 496;" xml:space="preserve" width="512px" height="512px">
<g>
	<path d="M168,83.998c-4.418,0-8,3.582-8,8v15.999c0,4.418,3.582,8,8,8s8-3.582,8-8V91.998C176,87.579,172.418,83.998,168,83.998z" fill="#FFFFFF"/>
	<path d="M328,83.998c-4.418,0-8,3.582-8,8v15.999c0,4.418,3.582,8,8,8s8-3.582,8-8V91.998C336,87.579,332.418,83.998,328,83.998z" fill="#FFFFFF"/>
	<path d="M472,20H344c-6.142,0-11.75,2.322-16,6.131C323.751,22.322,318.142,20,312,20H184c-6.142,0-11.751,2.322-16,6.131   C163.75,22.322,158.142,20,152,20H24C10.767,20,0,30.767,0,44v408c0,13.233,10.767,24,24,24h128c6.142,0,11.75-2.322,16-6.131   c4.249,3.809,9.858,6.131,16,6.131h128c6.142,0,11.751-2.322,16-6.131c4.249,3.809,9.858,6.131,16,6.131h128   c13.233,0,24-10.767,24-24V44C496,30.767,485.233,20,472,20z M480,452c0,4.411-3.589,8-8,8H344c-4.411,0-8-3.589-8-8V140.003   c0-4.418-3.582-8-8-8s-8,3.582-8,8V452c0,4.411-3.589,8-8,8H184c-4.411,0-8-3.589-8-8V140.003c0-4.418-3.582-8-8-8s-8,3.582-8,8   V452c0,4.411-3.589,8-8,8H24c-4.411,0-8-3.589-8-8V44c0-4.411,3.589-8,8-8h128c4.411,0,8,3.589,8,8v16.002c0,4.418,3.582,8,8,8   s8-3.582,8-8V44c0-4.411,3.589-8,8-8h128c4.411,0,8,3.589,8,8v16.002c0,4.418,3.582,8,8,8s8-3.582,8-8V44c0-4.411,3.589-8,8-8h128   c4.411,0,8,3.589,8,8V452z" fill="#FFFFFF"/>
	<path d="M276.993,372.246c-4.278,1.103-6.853,5.465-5.75,9.744C271.745,383.938,272,385.96,272,388c0,13.233-10.767,24-24,24   s-24-10.767-24-24s10.767-24,24-24c2.042,0,4.069,0.256,6.022,0.76c4.278,1.104,8.641-1.469,9.745-5.747   c1.104-4.278-1.469-8.641-5.747-9.745C254.762,348.426,251.391,348,248,348c-22.056,0-40,17.944-40,40s17.944,40,40,40   s40-17.944,40-40c0-3.386-0.425-6.752-1.264-10.005C285.633,373.717,281.275,371.142,276.993,372.246z" fill="#FFFFFF"/>
	<path d="M116.993,372.246c-4.278,1.103-6.853,5.465-5.75,9.744C111.745,383.938,112,385.96,112,388c0,13.233-10.767,24-24,24   s-24-10.767-24-24s10.767-24,24-24c2.042,0,4.069,0.256,6.022,0.76c4.278,1.104,8.641-1.469,9.745-5.747   c1.104-4.278-1.469-8.641-5.747-9.745C94.762,348.426,91.391,348,88,348c-22.056,0-40,17.944-40,40s17.944,40,40,40   s40-17.944,40-40c0-3.386-0.425-6.752-1.264-10.005C125.634,373.717,121.276,371.142,116.993,372.246z" fill="#FFFFFF"/>
	<path d="M436.993,372.246c-4.278,1.103-6.853,5.465-5.75,9.744C431.745,383.938,432,385.96,432,388c0,13.233-10.767,24-24,24   s-24-10.767-24-24s10.767-24,24-24c2.042,0,4.069,0.256,6.022,0.76c4.278,1.104,8.641-1.469,9.745-5.747   c1.104-4.278-1.469-8.641-5.747-9.745C414.762,348.426,411.391,348,408,348c-22.056,0-40,17.944-40,40s17.944,40,40,40   s40-17.944,40-40c0-3.386-0.425-6.752-1.264-10.005C445.634,373.717,441.274,371.142,436.993,372.246z" fill="#FFFFFF"/>
	<path d="M288,84h-80c-8.822,0-16,7.178-16,16v160c0,8.822,7.178,16,16,16h80c8.822,0,16-7.178,16-16V100   C304,91.178,296.822,84,288,84z M288,260h-80V100h80V260z" fill="#FFFFFF"/>
	<path d="M232,140h32c4.418,0,8-3.582,8-8s-3.582-8-8-8h-32c-4.418,0-8,3.582-8,8S227.582,140,232,140z" fill="#FFFFFF"/>
	<path d="M232,172h32c4.418,0,8-3.582,8-8s-3.582-8-8-8h-32c-4.418,0-8,3.582-8,8S227.582,172,232,172z" fill="#FFFFFF"/>
	<path d="M232,204h32c4.418,0,8-3.582,8-8s-3.582-8-8-8h-32c-4.418,0-8,3.582-8,8S227.582,204,232,204z" fill="#FFFFFF"/>
	<path d="M232,236h32c4.418,0,8-3.582,8-8s-3.582-8-8-8h-32c-4.418,0-8,3.582-8,8S227.582,236,232,236z" fill="#FFFFFF"/>
	<path d="M128,84H48c-8.822,0-16,7.178-16,16v160c0,8.822,7.178,16,16,16h80c8.822,0,16-7.178,16-16V100   C144,91.178,136.822,84,128,84z M128,260H48V100h80V260z" fill="#FFFFFF"/>
	<path d="M72,140h32c4.418,0,8-3.582,8-8s-3.582-8-8-8H72c-4.418,0-8,3.582-8,8S67.582,140,72,140z" fill="#FFFFFF"/>
	<path d="M72,172h32c4.418,0,8-3.582,8-8s-3.582-8-8-8H72c-4.418,0-8,3.582-8,8S67.582,172,72,172z" fill="#FFFFFF"/>
	<path d="M72,204h32c4.418,0,8-3.582,8-8s-3.582-8-8-8H72c-4.418,0-8,3.582-8,8S67.582,204,72,204z" fill="#FFFFFF"/>
	<path d="M448,84h-80c-8.822,0-16,7.178-16,16v160c0,8.822,7.178,16,16,16h80c8.822,0,16-7.178,16-16V100   C464,91.178,456.822,84,448,84z M448,260h-80V100h80V260z" fill="#FFFFFF"/>
	<path d="M392,140h32c4.418,0,8-3.582,8-8s-3.582-8-8-8h-32c-4.418,0-8,3.582-8,8S387.582,140,392,140z" fill="#FFFFFF"/>
	<path d="M392,172h32c4.418,0,8-3.582,8-8s-3.582-8-8-8h-32c-4.418,0-8,3.582-8,8S387.582,172,392,172z" fill="#FFFFFF"/>
</g>
<g>
</g>
<g>
</g>
<g>
</g>
<g>
</g>
<g>
</g>
<g>
</g>
<g>
</g>
<g>
</g>
<g>
</g>
<g>
</g>
<g>
</g>
<g>
</g>
<g>
</g>
<g>
</g>
<g>
</g>
</svg>
