<?xml version="1.0" encoding="iso-8859-1"?>
<!-- Generator: Adobe Illustrator 19.0.0, SVG Export Plug-In . SVG Version: 6.00 Build 0)  -->
<svg version="1.1" id="Capa_1" xmlns="http://www.w3.org/2000/svg" xmlns:xlink="http://www.w3.org/1999/xlink" x="0px" y="0px"
	 viewBox="0 0 460 460" style="enable-background:new 0 0 460 460;" xml:space="preserve">
<g id="XMLID_93_">
	<path id="XMLID_102_" style="fill:#42915F;" d="M430,243.904v35.081h30v-95.533C460,204.951,447.458,229.031,430,243.904z"/>
	<path id="XMLID_103_" style="fill:#42915F;" d="M460,170.996l0,12.457L460,170.996z"/>
	<path id="XMLID_104_" style="fill:#006E5E;" d="M334.391,293.953c0,16.5-13.5,30-30,30h-21.339
		c-12.531,18.813-31.264,33.139-53.281,40.055v88.54h40v-83.959c53.386,0,96.996-41.834,99.848-94.508
		c-11.237,5.051-23.448,10.54-35.227,15.835V293.953z"/>
	<path id="XMLID_105_" style="fill:#A4C662;" d="M459.998,111.548H430l0,132.356c17.458-14.874,30-38.953,30-60.452L459.998,111.548
		z"/>
	<path id="XMLID_106_" style="fill:#A4C662;" d="M400,227.533l-100.318,45.094c-0.753,18.938-6.769,36.521-16.63,51.326h21.339
		c16.5,0,30-13.5,30-30v-4.037c11.779-5.295,23.99-10.784,35.227-15.835c11.741-5.277,22.406-10.072,30.382-13.657V227.533z"/>
	<path id="XMLID_107_" style="fill:#42915F;" d="M199.775,150.939L60,150.956c-33.084,0-60,26.916-60,60s26.916,60,60,60h69.77v-40
		H60c-11.028,0-20-8.972-20-20s8.972-20,20-20h83.68l56.09,49.983v77.65h-40v133.959h40v-83.958c10.453,0,20.529-1.607,30-4.582
		c22.018-6.916,40.75-21.242,53.281-40.055c9.862-14.805,15.878-32.388,16.63-51.326c0.053-1.34,0.088-2.685,0.088-4.039v-17.65
		C299.77,195.712,255.001,150.942,199.775,150.939z M259.77,300.939h-30v-30h30V300.939z M259.77,240.939h-30v-30h30V240.939z"/>
	<rect id="XMLID_138_" x="229.77" y="210.939" style="fill:#006E5E;" width="30" height="30"/>
	<rect id="XMLID_169_" x="229.77" y="270.939" style="fill:#006E5E;" width="30" height="30"/>
	<rect id="XMLID_197_" x="377.307" y="52" style="fill:#A4C662;" width="30" height="30"/>
	<path id="XMLID_221_" style="fill:#006E5E;" d="M430,111.548h29.998v-61c0-27.5-22.248-46.644-49.441-42.542l-83.145,12.542V52
		h79.9v30h-79.9v29.548h32.191c7.002,9.117,18.008,15,30.392,15c0.005,0,0,54.391,0,54.391h-30v-30h-30v30h-30v-30h-100.22
		c55.227,0.003,99.995,44.773,99.995,100v17.65c0,1.354-0.035,2.698-0.088,4.039L400,227.533v51.452h30L430,111.548z"/>
	<rect id="XMLID_222_" x="299.995" y="150.939" style="fill:#42915F;" width="30" height="30"/>
	<rect id="XMLID_223_" x="359.995" y="150.939" style="fill:#42915F;" width="30" height="30"/>
</g>
<g>
</g>
<g>
</g>
<g>
</g>
<g>
</g>
<g>
</g>
<g>
</g>
<g>
</g>
<g>
</g>
<g>
</g>
<g>
</g>
<g>
</g>
<g>
</g>
<g>
</g>
<g>
</g>
<g>
</g>
</svg>
